<?xml version="1.0" encoding="utf-8" ?>	<!-- Generator: Assembly 2.4 - http://assemblyapp.co -->	<svg version="1.1" xmlns="http://www.w3.org/2000/svg" xmlns:xlink="http://www.w3.org/1999/xlink" width="4096.00" height="4096.00" viewBox="0 0 4096.0 4096.0">		<g id="document" transform="scale(13.653333333333334 13.653333333333334) translate(150.0 150.0)">			<path d="M-52.2413,-47.7278 C-55.0636,-48.6998 -57.8397,-49.8457 -60.5529,-51.1657 C-62.7783,-55.6164 -63.8909,-60.9017 -63.8909,-66.326 C-63.8909,-72.7239 -62.361,-78.7046 -59.4402,-83.8508 C-39.4119,-93.1695 -16.3237,-93.1695 3.70467,-83.8508 C6.62547,-78.7046 8.15541,-72.7239 8.15541,-66.4651 C8.15541,-61.0408 6.90364,-55.7555 4.81735,-51.1657 C3.46079,-50.5057 2.08853,-49.8893 0.702629,-49.3163 L0.702629,-52.3699 L-41.2248,-52.3699 C-42.6488,-52.3699 -43.9936,-52.0534 -45.1803,-51.4206 C-46.6833,-50.7086 -48.0282,-49.7593 -49.1357,-49.0473 C-49.6103,-48.7309 -50.085,-48.5727 -50.5596,-48.3354 C-51.0152,-48.1792 -51.5906,-47.9716 -52.2413,-47.7278 L-52.2413,-47.7278 Z M-71.9579,-49.6357 C-71.5406,-49.6357 -71.1234,-49.6357 -70.567,-49.7748 C-63.8909,-32.5282 -47.0616,-20.1496 -27.4505,-20.1496 C-7.83944,-20.1496 8.98992,-32.3891 15.666,-49.6357 C15.8051,-49.6357 16.0833,-49.6357 16.2224,-49.6357 C22.4812,-49.6357 27.4883,-57.1464 27.4883,-66.4651 C27.4883,-73.9757 24.1503,-80.2346 19.6995,-82.4599 L19.6995,-103.74 C22.8985,-104.714 25.2629,-107.774 25.2629,-111.251 C25.2629,-115.562 21.7858,-119.179 17.3351,-119.179 C13.0234,-119.179 9.40718,-115.562 9.40718,-111.251 C9.40718,-107.774 11.7716,-104.714 14.9706,-103.74 L14.9706,-84.8244 C7.87724,-101.236 -8.39578,-112.781 -27.4505,-112.781 C-47.0616,-112.781 -63.8909,-100.541 -70.567,-83.1554 C-70.9843,-83.2944 -71.4016,-83.2944 -71.9579,-83.2944 C-78.2168,-83.2944 -83.2238,-75.7838 -83.2238,-66.4651 C-83.2238,-57.1464 -78.2168,-49.6357 -71.9579,-49.6357 Z " fill="#000000" fill-opacity="1.00" />			<path d="M-44.7216,-40.4752 C-25.4238,-31.2911 -13.4474,-38.9752 -5.78093,-43.6423 C-5.30653,-43.9365 -4.50021,-43.5736 -5.1998,-42.77 C-7.75389,-39.6731 -16.1242,-32.2087 -27.0498,-32.2087 C-37.983,-32.2087 -44.4872,-38.1744 -45.3009,-39.215 C-46.109,-40.2469 -45.5382,-40.8161 -44.7214,-40.4752 L-44.7216,-40.4752 Z M-50.1413,-43.4683 C-49.6231,-44.1431 -46.9902,-44.2689 -45.3332,-44.0654 C-43.6736,-43.8677 -41.1826,-42.8534 -41.3992,-42.2444 C-41.5103,-42.0163 -41.7371,-42.1186 -42.8772,-42.2212 C-44.0204,-42.3352 -47.2229,-42.7394 -47.8902,-41.867 C-48.5606,-40.9887 -46.8688,-36.8043 -46.5598,-36.1295 C-46.2613,-35.4547 -46.6739,-35.2807 -47.2346,-35.7301 C-47.7877,-36.1794 -48.7889,-37.3429 -49.4608,-38.9895 C-50.1281,-40.645 -50.5351,-42.9545 -50.1412,-43.4683 L-50.1413,-43.4683 Z " fill="#ffffff" fill-opacity="1.00" />			<g>				<path d="M-8.57607,-93.3267 L-46.5509,-93.3267 C-59.718,-93.3267 -70.309,-82.7358 -70.309,-69.6641 C-70.309,-56.5923 -59.718,-46.0014 -46.6463,-46.0014 L-8.57607,-46.0014 C4.49566,-46.0014 15.0866,-56.5923 15.0866,-69.6641 C15.182,-82.7358 4.59107,-93.3267 -8.57607,-93.3267 Z M-46.6463,-52.7758 C-55.9969,-52.7758 -63.5346,-60.3135 -63.5346,-69.6641 C-63.5346,-79.0146 -55.9969,-86.5524 -46.6463,-86.5524 C-37.2957,-86.5524 -29.8534,-79.0146 -29.8534,-69.6641 C-29.758,-60.3135 -37.2957,-52.7758 -46.6463,-52.7758 Z M-8.95773,-52.7758 C-18.3083,-52.7758 -25.846,-60.3135 -25.846,-69.6641 C-25.846,-79.0146 -18.3083,-86.5524 -8.95773,-86.5524 C0.392852,-86.5524 7.93057,-79.0146 7.93057,-69.6641 C7.93057,-60.3135 0.392852,-52.7758 -8.95773,-52.7758 Z M-40.5398,-69.6641 C-40.5398,-73.0366 -43.2738,-75.7706 -46.6463,-75.7706 C-50.0188,-75.7706 -52.7528,-73.0366 -52.7528,-69.6641 C-52.7528,-66.2915 -50.0188,-63.5576 -46.6463,-63.5576 C-43.2738,-63.5576 -40.5398,-66.2915 -40.5398,-69.6641 Z M-2.85123,-69.6641 C-2.85123,-73.0366 -5.5852,-75.7706 -8.95773,-75.7706 C-12.3303,-75.7706 -15.0642,-73.0366 -15.0642,-69.6641 C-15.0642,-66.2915 -12.3303,-63.5576 -8.95773,-63.5576 C-5.5852,-63.5576 -2.85123,-66.2915 -2.85123,-69.6641 Z " fill="#000000" fill-opacity="1.00" />				<path d="M-8.16449,-83.8938 C-8.39786,-83.6216 -8.63123,-83.3493 -8.98129,-82.9603 C-9.25356,-83.3104 -9.44803,-83.5438 -9.64251,-83.7382 C-11.1983,-85.5274 -14.1933,-86.1498 -15.8658,-83.1937 C-16.1769,-82.6103 -16.2936,-81.8713 -16.3714,-81.21 C-16.4492,-80.5488 -16.6437,-80.3543 -17.3049,-80.5488 C-18.9774,-81.0156 -20.4554,-80.5488 -21.5445,-79.1875 C-22.478,-78.0206 -22.478,-76.1147 -21.6612,-74.7145 C-21.1167,-73.781 -21.1167,-73.7421 -22.1279,-73.2754 C-23.6449,-72.5753 -24.5394,-71.3306 -24.5394,-69.697 C-24.5006,-68.1412 -23.6837,-66.8965 -22.2057,-66.1575 C-21.0389,-65.5741 -21.0778,-65.613 -21.6612,-64.485 C-22.4391,-63.007 -22.4391,-61.529 -21.4667,-60.1676 C-20.5332,-58.8841 -19.133,-58.4173 -17.5383,-58.7285 C-16.4492,-58.9619 -16.4492,-58.9619 -16.3714,-57.795 C-16.2547,-56.2392 -15.0879,-54.7223 -13.6098,-54.2555 C-12.2874,-53.8277 -10.5371,-54.45 -9.56472,-55.6947 C-9.37024,-55.928 -9.17577,-56.1225 -8.94239,-56.3948 C-8.67013,-56.0836 -8.47565,-55.8503 -8.28117,-55.6169 C-6.49198,-53.4387 -3.41925,-53.6721 -2.05791,-56.1614 C-1.74675,-56.7448 -1.63006,-57.4061 -1.55227,-58.0673 C-1.47448,-58.6896 -1.35779,-59.0008 -0.61878,-58.8063 C1.01483,-58.3396 2.72622,-58.9619 3.62082,-60.1676 C4.47652,-61.3345 4.51541,-63.2793 3.69861,-64.6406 C3.15407,-65.5741 3.15407,-65.613 4.16535,-66.0797 C5.68227,-66.7799 6.53797,-67.9856 6.57687,-69.6581 C6.61576,-71.2917 5.72117,-72.5364 4.24314,-73.2754 C3.15407,-73.8199 3.11518,-73.781 3.7375,-74.8312 C5.05995,-77.0871 4.08756,-79.8487 1.67605,-80.5488 C0.937035,-80.7822 0.0813371,-80.6655 -0.735466,-80.5488 C-1.3189,-80.471 -1.55227,-80.5877 -1.59117,-81.1323 C-1.59117,-81.3267 -1.59117,-81.4823 -1.63006,-81.6768 C-1.86343,-83.3104 -2.68024,-84.4773 -4.27495,-85.0996 C-5.44181,-85.5274 -7.15321,-85.0218 -8.16449,-83.8938 Z M-1.86343,-69.697 C-1.86343,-65.7686 -5.05285,-62.618 -8.94239,-62.618 C-12.8319,-62.618 -16.0214,-65.7686 -16.0214,-69.697 C-16.0214,-73.6254 -12.8708,-76.776 -8.94239,-76.776 C-5.01396,-76.776 -1.86343,-73.6254 -1.86343,-69.697 Z M-8.94239,-72.692 C-10.5965,-72.692 -11.9373,-71.3511 -11.9373,-69.697 C-11.9373,-68.0429 -10.5965,-66.7021 -8.94239,-66.7021 C-7.28833,-66.7021 -5.94745,-68.0429 -5.94745,-69.697 C-5.94745,-71.3511 -7.28833,-72.692 -8.94239,-72.692 Z " fill="#000000" fill-opacity="1.00" />				<path d="M-47.5927,-55.4575 C-47.3593,-55.7298 -47.1259,-56.0021 -46.7759,-56.391 C-46.5036,-56.041 -46.3091,-55.8076 -46.1147,-55.6131 C-44.5588,-53.8239 -41.5639,-53.2016 -39.8914,-56.1577 C-39.5802,-56.7411 -39.4635,-57.4801 -39.3858,-58.1413 C-39.308,-58.8025 -39.1135,-58.997 -38.4523,-58.8025 C-36.7798,-58.3358 -35.3017,-58.8025 -34.2127,-60.1639 C-33.2792,-61.3307 -33.2792,-63.2366 -34.096,-64.6369 C-34.6405,-65.5703 -34.6405,-65.6092 -33.6292,-66.076 C-32.1123,-66.7761 -31.2177,-68.0208 -31.2177,-69.6544 C-31.2566,-71.2102 -32.0734,-72.4548 -33.5515,-73.1938 C-34.7183,-73.7773 -34.6794,-73.7384 -34.096,-74.8663 C-33.3181,-76.3444 -33.3181,-77.8224 -34.2905,-79.1837 C-35.224,-80.4673 -36.6242,-80.934 -38.2189,-80.6229 C-39.308,-80.3895 -39.308,-80.3895 -39.3858,-81.5563 C-39.5024,-83.1122 -40.6693,-84.6291 -42.1473,-85.0958 C-43.4698,-85.5237 -45.2201,-84.9014 -46.1925,-83.6567 C-46.3869,-83.4233 -46.5814,-83.2289 -46.8148,-82.9566 C-47.087,-83.2677 -47.2815,-83.5011 -47.476,-83.7345 C-49.2652,-85.9126 -52.3379,-85.6793 -53.6993,-83.19 C-54.0104,-82.6065 -54.1271,-81.9453 -54.2049,-81.2841 C-54.2827,-80.6618 -54.3994,-80.3506 -55.1384,-80.5451 C-56.772,-81.0118 -58.4834,-80.3895 -59.378,-79.1837 C-60.2337,-78.0169 -60.2726,-76.0721 -59.4558,-74.7108 C-58.9112,-73.7773 -58.9112,-73.7384 -59.9225,-73.2716 C-61.4394,-72.5715 -62.2951,-71.3658 -62.334,-69.6933 C-62.3729,-68.0596 -61.4783,-66.815 -60.0003,-66.076 C-58.9112,-65.5314 -58.8723,-65.5703 -59.4947,-64.5202 C-60.8171,-62.2642 -59.8447,-59.5027 -57.4332,-58.8025 C-56.6942,-58.5692 -55.8385,-58.6859 -55.0217,-58.8025 C-54.4383,-58.8803 -54.2049,-58.7636 -54.166,-58.2191 C-54.166,-58.0246 -54.166,-57.8691 -54.1271,-57.6746 C-53.8937,-56.041 -53.0769,-54.8741 -51.4822,-54.2518 C-50.3154,-53.8239 -48.604,-54.3296 -47.5927,-55.4575 Z M-53.8937,-69.6544 C-53.8937,-73.5828 -50.7043,-76.7333 -46.8148,-76.7333 C-42.9252,-76.7333 -39.7358,-73.5828 -39.7358,-69.6544 C-39.7358,-65.7259 -42.8863,-62.5754 -46.8148,-62.5754 C-50.7432,-62.5754 -53.8937,-65.7259 -53.8937,-69.6544 Z M-46.8148,-66.6594 C-45.1607,-66.6594 -43.8198,-68.0003 -43.8198,-69.6544 C-43.8198,-71.3084 -45.1607,-72.6493 -46.8148,-72.6493 C-48.4688,-72.6493 -49.8097,-71.3084 -49.8097,-69.6544 C-49.8097,-68.0003 -48.4688,-66.6594 -46.8148,-66.6594 Z " fill="#000000" fill-opacity="1.00" />			</g>			<path d="M-27.4395,68.6675 C-3.97035,68.6675 18.8136,66.4897 40.5697,62.3901 C-0.715501,19.7295 -7.0539,-30.3614 -7.0539,-30.3614 L-48.1678,-30.3614 C-48.1678,-30.3614 -54.5062,19.6014 -95.7914,62.262 C-73.864,66.4897 -51.08,68.6675 -27.4395,68.6675 Z " fill="#000000" fill-opacity="1.00" />			<path d="M-75.3142,-14.5867 L-84.1253,-10.9208 L-84.3826,-11.6925 C-85.7332,-15.9373 -90.2352,-18.4456 -94.5443,-17.2879 C-94.9945,-17.1593 -95.3804,-17.0307 -95.8306,-16.902 L-95.9592,-16.8377 C-95.9592,-16.8377 -95.9592,-16.8377 -95.9592,-16.8377 C-99.4322,-15.68 -101.748,-12.4643 -101.748,-8.86268 C-101.748,-7.96227 -101.619,-7.12618 -101.362,-6.29009 L-94.5443,14.9338 C-93.5153,18.1495 -90.1066,19.886 -86.8908,18.857 L-81.4884,17.1205 C-78.9801,16.2844 -77.2436,13.9691 -77.2436,11.3322 C-77.2436,10.689 -77.3723,10.1102 -77.5652,9.46704 L-81.3598,-2.36688 L-72.613,-6.03283 C-71.4553,-5.26105 -70.1047,-4.81085 -68.6254,-4.81085 C-67.0819,-4.81085 -65.667,-5.26105 -64.5093,-6.09714 L-50.2957,-1.40216 L-50.2957,-11.0494 L-62.0653,-14.9083 C-63.1587,-17.4166 -65.667,-19.153 -68.6254,-19.153 C-71.6482,-19.0887 -74.2208,-17.2236 -75.3142,-14.5867 Z " fill="#000000" fill-opacity="1.00" />			<path d="M20.0925,-14.5867 L28.9036,-10.9208 L29.1609,-11.6925 C30.5115,-15.9373 35.0135,-18.4456 39.3226,-17.2879 C39.7728,-17.1593 40.1587,-17.0307 40.6089,-16.902 L40.7375,-16.8377 C40.7375,-16.8377 40.7375,-16.8377 40.7375,-16.8377 C44.2105,-15.68 46.5259,-12.4643 46.5259,-8.86268 C46.5259,-7.96227 46.3972,-7.12618 46.14,-6.29009 L39.3226,14.9338 C38.2936,18.1495 34.8849,19.886 31.6691,18.857 L26.2667,17.1205 C23.7584,16.2844 22.0219,13.9691 22.0219,11.3322 C22.0219,10.689 22.1505,10.1102 22.3435,9.46704 L26.1381,-2.36688 L17.3912,-6.03283 C16.2336,-5.26105 14.883,-4.81085 13.4037,-4.81085 C11.8602,-4.81085 10.4452,-5.26105 9.28758,-6.09714 L-4.92599,-1.40216 L-4.92599,-11.0494 L6.84362,-14.9083 C7.93697,-17.4165 10.4452,-19.153 13.4037,-19.153 C16.4265,-19.0887 18.9991,-17.2236 20.0925,-14.5867 Z " fill="#000000" fill-opacity="1.00" />			<path d="M30.0171,39.6624 L-83.2653,39.6624 C-95.5013,39.6624 -105.567,49.7275 -105.567,61.9636 C-105.567,61.9636 -105.567,67.8843 -105.567,68.8711 C-105.567,74.9891 -103.396,80.5151 -99.8432,84.8569 C-96.2908,75.1865 -87.015,68.4764 -76.3578,68.4764 C-65.3059,68.4764 -55.8328,75.7785 -52.4777,86.041 C-49.1227,75.7785 -39.6496,68.4764 -28.5976,68.4764 C-17.5457,68.4764 -8.0726,75.7785 -4.71755,86.041 C-1.3625,75.7785 8.11059,68.4764 19.1625,68.4764 C31.0039,68.4764 40.8717,76.9627 43.6347,88.212 C48.9633,83.6728 52.3184,76.7653 52.3184,69.0684 C52.3184,68.0816 52.3184,62.161 52.3184,62.161 C52.3184,49.7275 42.2532,39.6624 30.0171,39.6624 Z " fill="#000000" fill-opacity="1.00" />			<path d="M-85.0768,108.524 C-84.1962,109.607 -83.214,110.683 -82.1302,111.75 C-81.0464,112.816 -79.9626,113.841 -78.8788,114.823 C-77.795,115.805 -76.745,116.703 -75.7289,117.516 C-74.7129,118.329 -73.8153,119.006 -73.0363,119.548 C-71.8509,120.259 -70.8095,120.657 -69.9119,120.742 C-69.0144,120.826 -68.1931,120.767 -67.448,120.564 C-66.8383,120.462 -66.3218,120.369 -65.8984,120.285 C-65.4751,120.2 -64.9586,119.92 -64.3489,119.446 C-63.8409,119.074 -63.553,118.718 -63.4853,118.379 C-63.4175,118.041 -63.7224,117.583 -64.3997,117.008 C-65.2465,116.33 -66.1525,115.534 -67.1177,114.62 C-68.083,113.705 -69.0567,112.757 -70.0389,111.775 C-71.0211,110.793 -71.9779,109.811 -72.9093,108.828 C-73.8407,107.846 -74.6959,106.915 -75.4749,106.034 C-71.6816,104.341 -68.4217,102.512 -65.6952,100.547 C-62.9688,98.5829 -61.0128,96.4322 -59.8274,94.0953 C-59.0484,92.6389 -58.8791,90.7761 -59.3194,88.5069 C-59.8613,86.3731 -60.6149,84.5696 -61.5801,83.0963 C-62.5454,81.623 -63.6207,80.2428 -64.8062,78.9558 C-66.2964,77.4994 -68.0322,76.6104 -70.0135,76.2886 C-71.9949,75.9669 -74.0948,76.0007 -76.3132,76.3902 C-78.5316,76.7797 -80.7839,77.4317 -83.0701,78.3462 C-85.3562,79.2606 -87.5492,80.192 -89.6491,81.1404 C-90.0894,81.3774 -90.5128,81.9786 -90.9192,82.9439 C-91.3257,83.9092 -91.6982,85.1284 -92.0369,86.6017 C-92.3756,88.075 -92.6973,89.7346 -93.0022,91.5805 C-93.307,93.4264 -93.5864,95.3315 -93.8404,97.2959 C-94.0944,99.2603 -94.3315,101.225 -94.5517,103.189 C-94.7718,105.154 -94.9666,106.991 -95.1359,108.701 C-95.3053,110.412 -95.4492,111.944 -95.5678,113.299 C-95.6863,114.654 -95.7794,115.687 -95.8472,116.398 C-95.9149,117.279 -95.8302,117.981 -95.5932,118.506 C-95.3561,119.031 -94.9158,119.48 -94.2723,119.853 C-93.6287,120.191 -92.9514,120.428 -92.2401,120.564 C-91.5289,120.699 -90.716,120.886 -89.8015,121.123 C-89.0226,121.292 -88.4891,121.292 -88.2012,121.123 C-87.9133,120.953 -87.6847,120.598 -87.5154,120.056 C-87.1428,118.227 -86.7618,116.364 -86.3723,114.468 C-85.9828,112.571 -85.551,110.59 -85.0768,108.524 Z M-79.6408,87.8972 C-78.3199,87.2537 -77.0668,86.8134 -75.8814,86.5763 C-74.6959,86.3393 -73.6121,86.2207 -72.6299,86.2207 C-70.6316,86.2207 -69.4293,86.6949 -69.0229,87.6432 C-68.8196,88.219 -68.989,89.0318 -69.5309,90.0818 C-70.0728,91.1317 -70.9534,92.2409 -72.1727,93.4094 C-73.392,94.5779 -74.9076,95.7295 -76.7196,96.8641 C-78.5316,97.9987 -80.6061,98.9555 -82.9431,99.7345 C-82.2995,97.4991 -81.7238,95.3992 -81.2157,93.4348 C-80.7077,91.4704 -80.1827,89.6246 -79.6408,87.8972 Z " fill="#000000" fill-opacity="1.00" />			<path d="M-17.6843,80.8296 C-18.8359,79.9152 -20.2838,79.1362 -22.028,78.4927 C-23.7723,77.8491 -25.6097,77.375 -27.5402,77.0702 C-29.0304,76.8331 -30.5969,76.9516 -32.2395,77.4258 C-33.8822,77.8999 -35.2962,78.5943 -36.4816,79.5087 C-38.2428,81.0328 -39.7923,82.7517 -41.1302,84.6653 C-42.468,86.5789 -43.5942,88.6026 -44.5086,90.7363 C-45.4231,92.8701 -46.1174,95.0631 -46.5916,97.3154 C-47.0657,99.5677 -47.3197,101.778 -47.3536,103.945 C-47.3875,106.113 -47.2012,108.179 -46.7948,110.143 C-46.3883,112.108 -45.7787,113.869 -44.9658,115.427 C-44.4578,116.375 -43.7635,117.222 -42.8829,117.967 C-42.0023,118.712 -41.1048,119.322 -40.1903,119.796 C-39.0726,120.372 -37.8364,120.804 -36.4816,121.091 C-35.1269,121.379 -33.806,121.591 -32.519,121.727 C-30.5884,121.93 -28.878,121.854 -27.3878,121.498 C-25.8976,121.142 -24.4751,120.44 -23.1203,119.39 C-21.122,117.628 -19.437,115.478 -18.0653,112.938 C-16.6936,110.397 -15.6098,107.696 -14.8139,104.834 C-14.018,101.972 -13.5184,99.0935 -13.3152,96.1977 C-13.112,93.3019 -13.1967,90.6178 -13.5692,88.1453 C-13.8402,86.6551 -14.272,85.3257 -14.8647,84.1573 C-15.4574,82.9888 -16.3973,81.8796 -17.6843,80.8296 Z M-25.8637,85.91 C-25.1863,86.1132 -24.6867,86.816 -24.365,88.0183 C-24.0432,89.2207 -23.8823,90.6686 -23.8823,92.362 C-23.8823,94.0216 -24.0178,95.8082 -24.2888,97.7218 C-24.5597,99.6354 -24.9154,101.388 -25.3557,102.98 C-25.8637,104.911 -26.4649,106.697 -27.1592,108.34 C-27.8535,109.982 -28.5901,111.363 -29.3691,112.48 C-30.1481,113.598 -30.9271,114.428 -31.7061,114.97 C-32.4851,115.512 -33.2302,115.664 -33.9415,115.427 C-34.7205,115.19 -35.3132,114.546 -35.7196,113.496 C-36.126,112.446 -36.3631,111.185 -36.4308,109.711 C-36.4986,108.238 -36.4308,106.646 -36.2276,104.936 C-36.0244,103.226 -35.6857,101.574 -35.2116,99.9826 C-34.7374,98.3569 -34.1193,96.6719 -33.3572,94.9276 C-32.5952,93.1834 -31.7738,91.6 -30.8932,90.1775 C-30.0127,88.755 -29.1321,87.6288 -28.2515,86.799 C-27.3709,85.9693 -26.5749,85.6729 -25.8637,85.91 Z " fill="#000000" fill-opacity="1.00" />			<path d="M26.4022,100.803 C27.5537,100.227 28.5528,99.6263 29.3996,98.9997 C30.2463,98.3731 31.0761,97.755 31.8889,97.1454 C32.6341,96.5019 33.3284,95.816 33.9719,95.0878 C34.6154,94.3596 35.1573,93.5722 35.5976,92.7255 C36.0379,91.8787 36.3512,90.9981 36.5375,90.0837 C36.7238,89.1692 36.7322,88.2209 36.5629,87.2387 C36.1903,85.4436 35.6061,83.8687 34.8102,82.5139 C34.0142,81.1592 33.0236,79.8891 31.8381,78.7037 C30.9237,77.8231 29.7552,77.1541 28.3327,76.6969 C26.9102,76.2397 25.3437,75.9603 23.6334,75.8587 C21.923,75.757 20.1194,75.8078 18.2228,76.0111 C16.3261,76.2143 14.4548,76.536 12.609,76.9763 C10.7631,77.4166 8.99345,77.9416 7.3,78.5512 C5.60654,79.1609 4.1163,79.8213 2.82928,80.5326 C2.76154,83.1405 2.60066,85.8924 2.34664,88.7882 C2.09263,91.684 1.80474,94.5629 1.48298,97.4248 C1.16123,100.287 0.864872,103.047 0.593919,105.706 C0.322967,108.364 0.136687,110.744 0.0350795,112.844 C-0.0326586,113.487 -0.0326586,114.012 0.0350795,114.419 C0.102818,114.825 0.221359,115.189 0.390705,115.511 C0.56005,115.833 0.788666,116.137 1.07655,116.425 C1.36444,116.713 1.69466,117.06 2.06722,117.467 C3.0833,118.246 3.97236,118.881 4.73441,119.372 C5.49647,119.863 6.38553,120.329 7.4016,120.769 C7.94351,121.074 8.41768,121.294 8.8241,121.429 C9.23053,121.565 9.64543,121.65 10.0688,121.684 C10.4922,121.717 10.9325,121.7 11.3897,121.633 C11.8469,121.565 12.3973,121.446 13.0408,121.277 C14.2601,120.972 15.5471,120.591 16.9019,120.134 C18.2566,119.677 19.6029,119.16 20.9408,118.584 C22.2786,118.009 23.5487,117.365 24.751,116.654 C25.9534,115.943 26.9949,115.198 27.8755,114.419 C29.1625,113.403 30.0939,112.361 30.6697,111.294 C31.2454,110.227 31.4486,108.932 31.2793,107.408 C31.0083,106.121 30.458,104.868 29.6282,103.648 C28.7984,102.429 27.723,101.481 26.4022,100.803 Z M12.99,97.1962 C13.4642,95.4011 13.8706,93.7077 14.2093,92.1158 C14.548,90.524 14.9544,88.9999 15.4286,87.5435 C16.8849,86.8661 18.2397,86.3581 19.4929,86.0194 C20.746,85.6807 21.8552,85.4859 22.8205,85.4351 C23.7858,85.3843 24.5732,85.469 25.1829,85.6892 C25.7925,85.9093 26.1651,86.2395 26.3005,86.6798 C26.436,87.2217 26.2328,87.9414 25.6909,88.839 C25.149,89.7365 24.2938,90.6848 23.1253,91.684 C21.9568,92.6831 20.5174,93.6738 18.807,94.656 C17.0966,95.6382 15.1576,96.4849 12.99,97.1962 Z M11.0595,105.63 C12.4142,105.189 13.6504,104.893 14.7681,104.741 C15.8858,104.588 16.868,104.563 17.7147,104.664 C18.5615,104.766 19.2388,104.952 19.7469,105.223 C20.2549,105.494 20.5936,105.799 20.763,106.138 C20.8984,106.713 20.7206,107.348 20.2295,108.043 C19.7384,108.737 18.9848,109.431 17.9688,110.126 C16.9527,110.82 15.7165,111.48 14.2601,112.107 C12.8037,112.734 11.1949,113.267 9.43375,113.707 C9.67083,112.353 9.93332,111.023 10.2212,109.719 C10.5091,108.415 10.7885,107.052 11.0595,105.63 Z " fill="#000000" fill-opacity="1.00" />			<path d="M39.1712,115.86 L43.708,94.4949 L39.577,94.4949 L35.0402,115.86 L39.1712,115.86 Z M59.3042,102.061 C58.3282,100.389 56.4826,99.5535 53.7673,99.5535 C51.0519,99.5535 48.8488,100.389 47.1577,102.061 C45.4667,103.733 44.3796,105.709 43.8964,107.989 C43.4036,110.309 43.6476,112.292 44.6284,113.939 C45.6092,115.587 47.4573,116.411 50.1726,116.411 C52.8879,116.411 55.0887,115.587 56.7749,113.939 C58.4611,112.292 59.5506,110.309 60.0434,107.989 C60.5266,105.709 60.2802,103.733 59.3042,102.061 Z M52.9991,103.047 C54.2069,103.047 55.0452,103.474 55.5139,104.329 C55.9825,105.185 56.0478,106.405 55.7096,107.989 C55.3713,109.574 54.7867,110.797 53.9557,111.657 C53.1247,112.517 52.1052,112.947 50.8973,112.947 C49.6894,112.947 48.8512,112.517 48.3825,111.657 C47.9139,110.797 47.8486,109.574 48.1868,107.989 C48.525,106.405 49.1097,105.185 49.9407,104.329 C50.7717,103.474 51.7912,103.047 52.9991,103.047 Z M71.9435,110.135 C71.6826,110.966 71.2937,111.642 70.7767,112.164 C70.2597,112.686 69.5181,112.947 68.5518,112.947 C67.1893,112.947 66.4018,112.289 66.1892,110.975 C66.0732,110.27 66.136,109.337 66.3776,108.178 C66.6385,106.96 66.9815,105.984 67.4067,105.25 C68.2088,103.868 69.3055,103.177 70.697,103.177 C71.673,103.177 72.3252,103.496 72.6538,104.134 C72.876,104.607 72.963,105.139 72.9147,105.728 L77.1471,105.728 C77.3983,103.477 76.9877,101.906 75.9151,101.017 C74.8425,100.128 73.3157,99.684 71.3348,99.684 C69.006,99.684 67.0178,100.438 65.3702,101.945 C63.7227,103.453 62.6138,105.564 62.0437,108.279 C61.5316,110.685 61.7127,112.642 62.5873,114.15 C63.4618,115.657 65.1697,116.411 67.7111,116.411 C70.2525,116.411 72.3639,115.507 74.0453,113.7 C75.0985,112.579 75.8039,111.391 76.1615,110.135 L71.9435,110.135 Z M85.0032,109.105 L87.3513,115.86 L92.3375,115.86 L88.6413,106.178 L95.4538,100.133 L90.3372,100.133 L83.9306,106.076 L86.3802,94.5674 L82.3217,94.5674 L77.7994,115.86 L81.8579,115.86 L82.9015,110.888 L85.0032,109.105 Z M100.454,104.177 C100.532,103.8 100.79,103.472 101.23,103.192 C101.67,102.911 102.339,102.771 103.237,102.771 C104.329,102.771 105.044,103.052 105.383,103.612 C105.557,103.921 105.619,104.342 105.571,104.873 L109.702,104.873 C109.924,102.94 109.499,101.58 108.427,100.793 C107.354,100.005 105.832,99.6115 103.861,99.6115 C101.783,99.6115 100.061,100.136 98.6934,101.184 C97.326,102.233 96.4878,103.486 96.1786,104.946 C95.908,106.182 96.0723,107.129 96.6714,107.786 C97.2608,108.453 98.4011,109.009 100.092,109.453 C102.45,110.043 103.798,110.458 104.136,110.7 C104.474,110.941 104.595,111.294 104.498,111.758 C104.392,112.241 104.073,112.604 103.542,112.845 C103.01,113.087 102.339,113.207 101.527,113.207 C100.145,113.207 99.2611,112.932 98.8746,112.381 C98.6426,112.072 98.5605,111.55 98.6281,110.816 L94.4392,110.816 C94.101,112.439 94.4126,113.775 95.3741,114.824 C96.3356,115.872 98.058,116.396 100.541,116.396 C102.977,116.396 104.88,115.901 106.252,114.911 C107.624,113.92 108.48,112.642 108.818,111.077 C109.069,109.888 108.871,108.898 108.224,108.105 C107.566,107.323 106.46,106.738 104.904,106.351 C102.556,105.81 101.203,105.429 100.846,105.206 C100.479,104.994 100.348,104.651 100.454,104.177 Z " fill="#000000" fill-opacity="1.00" />		</g>	</svg>